<?xml version="1.0" encoding="utf-8"?>
<svg version="1.1" xmlns="http://www.w3.org/2000/svg" xmlns:xlink="http://www.w3.org/1999/xlink" x="0px" y="0px" viewBox="0 0 1000 1000" enable-background="new 0 0 1000 1000" xml:space="preserve">
<g><path d="M247.5,10L36.5,292l1.2,698l714,0l211.8-289l0.1-691H247.5z M282.9,43.8h621.4L727.7,281.3l-444.8-0.4L282.9,43.8z M719.2,315.1l0,366.5H513.8l-0.3-186.5l108.1,107.7l23.9-24L495.9,429.9L347,578.9l23.9,23.9l108.7-108.7l0.3,187.5H282.9V314.8L719.2,315.1z M249,702.7L71.3,923l-1-608.4l178.7,0.1V702.7z M282.2,715.4H480l0.2,110l33.8-0.1l-0.2-109.9h205.4v240.7l-631.2,0L282.2,715.4z M753.1,715.4h157.8L753.1,930.8V715.4z M753.1,681.6V303.8L929.7,66.3l-0.1,615.3H753.1z M249,64.5v216.4l-161.9-0.1L249,64.5z"/></g>
</svg>